<?xml version="1.0" encoding="utf-8"?>
<!-- Generator: Adobe Illustrator 26.0.1, SVG Export Plug-In . SVG Version: 6.00 Build 0)  -->
<svg version="1.1" id="Layer_1" xmlns="http://www.w3.org/2000/svg" xmlns:xlink="http://www.w3.org/1999/xlink" x="0px" y="0px"
	 viewBox="0 0 130 50" style="enable-background:new 0 0 130 50;" xml:space="preserve">
<style type="text/css">
	.st0{fill:#06539E;}
	.st1{fill:#9C9999;}
	.st2{fill:#917B2E;}
	.st3{fill:#131111;}
</style>
<g>
	<path class="st0" d="M20.3,1.7c0.1,0.1,0.1,0.1,0.2,0.1c3.1,0.9,6.2,1.7,9.4,2.6c0.4,0.1,0.3,0,0.3,0.4c0,4.5,0,9.1,0.1,13.6
		c0,3.2,0,6.5,0,9.7c0,2,0,4.1,0,6.1c0,0.3,0,0.3-0.3,0.3c-4.6,0-9.3-0.1-13.9-0.1c-0.7,0-1.3,0-2,0c-0.1,0-0.1,0-0.2,0
		c0.1,0,0.1-0.1,0.2-0.1c1.7-0.9,3.2-2,4.6-3.4c0.7-0.7,1.3-1.5,1.7-2.4c1-2,1-3.9,0.1-5.9c-0.2-0.4-0.4-0.8-0.7-1.2
		C19,19.9,18,18.7,17,17.4c-0.5-0.6-1-1.3-1.3-2c-0.3-0.6-0.6-1.3-0.7-2c-0.1-0.7,0-1.5,0.1-2.2c0.2-1.1,0.7-2,1.1-3
		c0.8-1.7,1.8-3.3,2.8-4.9c0.3-0.5,0.6-1,0.9-1.5C20.1,1.8,20.2,1.8,20.3,1.7C20.2,1.7,20.3,1.7,20.3,1.7z"/>
	<path class="st0" d="M0.3,4.5c1.3,0,2.5,0,3.8,0c3.3,0,6.6,0.1,9.9,0.1c0.8,0,1.7,0,2.5,0c0.1,0,0.1,0,0.2,0
		c-0.1,0-0.1,0.1-0.2,0.1c-1.7,0.9-3.3,2.1-4.6,3.5c-0.8,0.9-1.5,1.9-2,3c-0.7,1.8-0.6,3.6,0.3,5.4c0.2,0.5,0.6,1,0.9,1.4
		c0.8,1.2,1.7,2.3,2.6,3.5c0.4,0.6,0.9,1.2,1.2,1.8c0.4,0.6,0.6,1.3,0.8,2c0.2,0.8,0.1,1.6-0.1,2.4c-0.3,1.1-0.7,2.1-1.2,3.1
		c-0.7,1.5-1.6,2.9-2.5,4.3c-0.4,0.7-0.8,1.3-1.3,2c-0.1,0.2-0.1,0.2-0.3,0.1c-3-0.8-5.9-1.6-8.9-2.5c-0.2-0.1-0.5-0.1-0.7-0.2
		c-0.2-0.1-0.2-0.1-0.2-0.3c0-1.9,0-3.7,0-5.6c0-5.1,0-10.2-0.1-15.3c0-0.1,0-0.2,0-0.2c0-0.1,0-0.2,0-0.2c0-1.1,0-2.2,0-3.3
		c0-0.4,0-0.8,0-1.1c0.1-0.1,0-0.1,0-0.2c0-0.6,0-1.2,0-1.8c0-0.3,0-0.6,0-0.8C0.3,5.3,0.3,4.9,0.3,4.5z"/>
	<path class="st1" d="M87.5,48.1C87.5,48.1,87.5,48.1,87.5,48.1c1-0.1,1.9-0.1,2.9,0c0,0,0,0,0,0C89.5,48.1,88.5,48.1,87.5,48.1z"/>
	<path class="st1" d="M47.8,48.1C47.8,48.1,47.8,48.1,47.8,48.1c0.6,0,1.3,0,1.9,0c0,0,0,0,0,0C49.1,48.1,48.4,48.1,47.8,48.1z"/>
	<path class="st1" d="M53.6,48.1C53.6,48.1,53.6,48.1,53.6,48.1c-0.3,0.1-0.5,0.1-0.8,0.1c0,0,0,0,0,0
		C53.1,48.1,53.4,48.1,53.6,48.1z"/>
	<path class="st1" d="M59.5,48.1C59.5,48.1,59.5,48.1,59.5,48.1c0.3,0,0.5,0,0.8-0.1c0,0,0,0,0,0.1C60.1,48.1,59.8,48.1,59.5,48.1z"
		/>
	<path class="st1" d="M76.9,48.1C76.9,48.1,76.9,48.1,76.9,48.1c-0.3,0.1-0.5,0.1-0.8,0.1c0,0,0,0,0,0
		C76.4,48.1,76.7,48.1,76.9,48.1z"/>
	<path class="st1" d="M79.4,48.1C79.4,48.1,79.4,48.1,79.4,48.1c0.3,0,0.5-0.1,0.8-0.1c0,0,0,0,0,0.1C79.9,48.1,79.6,48.1,79.4,48.1
		z"/>
	<path class="st1" d="M84.7,48.1C84.7,48.1,84.7,48.1,84.7,48.1c0.3,0,0.5,0,0.8,0c0,0,0,0,0,0C85.2,48.1,84.9,48.1,84.7,48.1z"/>
	<path class="st1" d="M56,48.1C56,48.1,56,48.1,56,48.1c0.3,0,0.5,0,0.8,0l0,0l0,0C56.6,48.1,56.3,48.1,56,48.1z"/>
	<path class="st1" d="M66.5,48.1C66.5,48.1,66.5,48.1,66.5,48.1c0.3-0.1,0.5,0,0.8,0c0,0,0,0,0,0C67,48.1,66.7,48.1,66.5,48.1z"/>
	<path class="st1" d="M71.1,48.1C71.1,48.1,71.1,48.1,71.1,48.1c-0.2,0.1-0.5,0.1-0.7,0.1c0,0,0,0,0,0
		C70.6,48.1,70.9,48.1,71.1,48.1z"/>
	<path class="st1" d="M72.8,48.1C72.8,48.1,72.8,48.1,72.8,48.1c0.3-0.1,0.5-0.1,0.8-0.1c0,0,0,0,0,0.1
		C73.3,48.1,73.1,48.1,72.8,48.1z"/>
	<path class="st1" d="M82.9,48.1C82.9,48.1,82.9,48.1,82.9,48.1c-0.2,0.1-0.5,0.1-0.8,0.1c0,0,0,0,0,0
		C82.4,48.1,82.7,48.1,82.9,48.1z"/>
	<path class="st1" d="M64.5,48.1C64.5,48.1,64.5,48.1,64.5,48.1c-0.3,0-0.5,0-0.8,0c0,0,0,0,0-0.1C64,48.1,64.3,48.1,64.5,48.1z"/>
	<path class="st0" d="M108.4,22.2c0,3.9,0,7.7,0,11.6c0,0.4,0,0.3-0.3,0.3c-2.8,0-5.6,0-8.5,0c-0.9,0-1.8-0.1-2.6-0.3
		c-0.3-0.1-0.6-0.2-0.9-0.4c-0.1-0.1-0.3-0.1-0.4-0.2c-1.8-0.9-3-2.4-3.7-4.3c-0.4-1-0.5-2-0.5-3.1c0-1,0.1-2,0.2-3
		c0.4-2.1,1.6-3.7,3.3-4.9c0.7-0.5,1.4-0.7,2.2-0.9c0.9-0.2,1.8-0.3,2.7-0.3c1.2,0,2.5,0,3.7,0c0.3,0,0.3,0,0.3-0.3
		c0-1.9,0-3.9,0-5.8c0-0.3,0-0.3,0.3-0.3c1.3,0,2.7,0,4,0c0.3,0,0.3,0,0.3,0.3C108.4,14.4,108.4,18.3,108.4,22.2z M103.9,25.4
		c0-1.6,0-3.1,0-4.7c0-0.3,0.1-0.3-0.3-0.3c-1.2,0-2.4,0-3.6,0.1c-0.3,0-0.6,0-0.9,0.1c-0.6,0.1-1.2,0.5-1.6,1
		c-0.5,0.5-0.8,1.1-1,1.8c-0.2,0.8-0.3,1.5-0.3,2.3c0,0.7,0,1.4,0.2,2c0.3,1.3,1.1,2.1,2.4,2.5c0.5,0.1,1,0.2,1.4,0.2
		c1.2,0.1,2.3,0,3.5,0c0.1,0,0.2,0,0.2-0.2c0,0,0-0.1,0-0.1C103.9,28.5,103.9,26.9,103.9,25.4z"/>
	<path class="st2" d="M88.7,28.9c0,2.7,0,5.4,0,8.2c0,1.3,0,2.6-0.1,3.9c0,0.4,0,0.3-0.3,0.3c-1.3,0-2.6,0-3.9,0c-0.1,0-0.1,0-0.2,0
		c-0.1,0-0.1,0-0.1-0.1c0-0.2,0-0.4,0-0.6c0-2.1,0.1-4.2,0.1-6.4c0,0,0-0.1,0-0.1c0-0.1,0-0.1-0.1-0.1c-0.1,0-0.1,0-0.2,0
		c-1.1,0-2.2,0-3.4,0c-0.8,0-1.7,0-2.5-0.2c-0.6-0.1-1.2-0.3-1.8-0.5c-1.3-0.6-2.2-1.7-2.6-3.1c-0.2-0.7-0.3-1.4-0.3-2.1
		c0-0.4,0-0.9,0-1.3c0-3.3,0-6.7,0-10c0-0.4,0-0.3,0.3-0.3c1.3,0,2.5,0,3.8,0c0,0,0.1,0,0.1,0c0.2,0,0.2,0,0.2,0.2
		c0,0.1,0,0.1,0,0.2c0,3.3,0,6.7,0,10c0,0.4,0,0.8,0,1.2c0.1,0.3,0.2,0.6,0.3,1c0.1,0.3,0.4,0.5,0.7,0.7c0.4,0.2,0.9,0.3,1.4,0.3
		c0.7,0,1.5,0,2.2,0c0.6,0,1.2,0,1.8,0c0.2,0,0.2,0,0.2-0.2c0-0.1,0-0.1,0-0.2c0-4.3,0-8.7,0-13c0-0.3,0-0.3,0.3-0.3
		c1.3,0,2.6,0,3.9,0c0.1,0,0.1,0,0.2,0c0.1,0,0.1,0,0.1,0.1c0,0.1,0,0.1,0,0.2C88.7,20.9,88.7,24.9,88.7,28.9z"/>
	<path class="st0" d="M41.5,34.9c-2,0-4.1,0-6.1,0c-0.3,0-0.3,0-0.3-0.3c0-1.1,0-2.1,0-3.2c0,0,0-0.1,0-0.1c0-0.1,0-0.2,0.1-0.1
		c0.1,0,0.1,0,0.2,0c3.2,0,6.4,0,9.5,0c0.4,0,0.8,0,1.2-0.1c0.1,0,0.2-0.1,0.3-0.1c1-0.4,1.4-1.4,1-2.4c-0.2-0.3-0.4-0.5-0.7-0.7
		c-0.4-0.2-0.8-0.3-1.2-0.3c-0.2,0-0.4,0-0.6,0c-1.4,0-2.8,0-4.3,0c-0.9,0-1.9-0.1-2.8-0.3c-0.5-0.1-1.1-0.3-1.5-0.6
		c-0.6-0.4-1-1-1.2-1.6c-0.2-0.5-0.3-1.1-0.4-1.6c-0.1-1,0-2.1,0.3-3.1c0.5-1.6,1.6-2.6,3.1-3.1c0.9-0.3,1.9-0.4,2.8-0.4
		c3.3,0,6.7,0,10,0c0,0,0.1,0,0.1,0c0.1,0,0.1,0,0.1,0.1c0,0.1,0,0.1,0,0.2c0,1,0,2.1,0,3.1c0,0.1,0,0.1,0,0.2c0,0.1,0,0.1-0.1,0.1
		c-0.1,0-0.1,0-0.2,0c-3,0-5.9,0-8.9,0c-0.4,0-0.9,0-1.3,0.1c-0.2,0.1-0.5,0.2-0.7,0.3c-0.3,0.2-0.5,0.5-0.5,0.9c0,0.2,0,0.4,0,0.5
		c0,0.5,0.3,0.9,0.7,1.1c0.4,0.2,0.7,0.2,1.1,0.3c0.2,0,0.3,0,0.5,0c1.4,0,2.9,0,4.3,0c0.9,0,1.7,0.1,2.6,0.4
		c1.2,0.4,2.2,1.1,2.8,2.2c0.4,0.7,0.5,1.4,0.6,2.1c0,0.9,0,1.8-0.3,2.6c-0.2,0.6-0.4,1.1-0.8,1.6c-0.6,0.8-1.3,1.5-2.3,1.8
		c-0.5,0.2-1,0.2-1.5,0.2c-1.5,0-3,0-4.5,0C42.4,34.9,42,34.9,41.5,34.9z"/>
	<path class="st0" d="M128.5,24.9c0,5-4,9.1-9.1,9.1c-5.2,0-9.1-4.2-9.1-9.1c0-5,4.1-9.1,9.1-9.1C124.4,15.8,128.5,19.8,128.5,24.9z
		 M124.2,25c0-2.7-2.1-4.8-4.8-4.8c-2.7,0-4.8,2.1-4.8,4.8c0,2.7,2.1,4.9,4.8,4.9C122,29.8,124.2,27.6,124.2,25z"/>
	<path class="st0" d="M54.1,25.3c0-2.8,0-5.6,0-8.4c0-0.4,0-0.3,0.3-0.3c2.7,0,5.5,0,8.2,0c1,0,2.1,0.1,3.1,0.4
		c2,0.5,3.2,1.8,3.7,3.8c0.2,0.8,0.2,1.5,0.2,2.3c0,3.6,0,7.1,0,10.7c0,0,0,0,0,0c0,0.2,0,0.2-0.2,0.2c-0.3,0-0.7,0-1,0
		c-1,0-2,0-3.1,0c-0.1,0-0.1,0-0.2,0c-0.1,0-0.1,0-0.1-0.1c0-0.1,0-0.1,0-0.2c0-3.4,0-6.7,0-10.1c0-0.7,0-1.4-0.2-2
		c-0.1-0.4-0.3-0.6-0.6-0.8c-0.3-0.2-0.7-0.2-1-0.3c-0.3,0-0.6-0.1-0.9-0.1c-1.2,0-2.3,0-3.5,0c-0.2,0-0.2,0-0.2,0.2
		c0,0.9,0,1.9,0,2.8c0,3.4,0,6.7,0,10.1c0,0,0,0.1,0,0.1c0,0.3,0,0.3-0.3,0.3c-1.3,0-2.6,0-3.9,0c0,0-0.1,0-0.1,0
		c-0.1,0-0.1,0-0.1-0.1c0-0.1,0-0.1,0-0.2C54.1,30.9,54.1,28.1,54.1,25.3z"/>
	<path class="st3" d="M73.6,48.1c-0.2,0-0.5,0-0.7,0c-0.3-1-0.5-2.1-0.8-3.1c0,0,0,0,0,0c-0.3,1-0.6,2.1-0.8,3.1c-0.2,0-0.5,0-0.7,0
		c-0.1-0.5-0.3-1-0.4-1.6c-0.2-0.9-0.4-1.8-0.6-2.7c0-0.1,0-0.1,0-0.2c0.2,0,0.5,0,0.7,0c0.1,0,0.1,0.1,0.1,0.1
		c0.1,0.4,0.2,0.9,0.3,1.3c0.1,0.6,0.2,1.1,0.3,1.7c0,0,0,0,0,0.1c0.1-0.1,0.1-0.2,0.1-0.2c0.2-0.9,0.5-1.8,0.7-2.8
		c0-0.2,0-0.2,0.2-0.2c0.1,0,0.3-0.1,0.4,0c0.1,0.1,0.1,0.3,0.1,0.4c0.2,0.9,0.4,1.8,0.7,2.7c0,0,0,0.1,0.1,0.1
		c0.1-0.1,0.1-0.2,0.1-0.3c0.2-0.9,0.4-1.8,0.5-2.7c0-0.2,0-0.2,0.3-0.2c0.2,0,0.3,0,0.5,0c0,0.2-0.1,0.4-0.1,0.6
		c-0.3,1.2-0.6,2.5-0.9,3.7C73.6,48,73.6,48.1,73.6,48.1z"/>
	<path class="st3" d="M49.7,48.1c-0.6,0-1.3,0-1.9,0c0-0.1,0-0.2,0-0.2c0-1.3,0-2.6,0-4c0,0,0-0.1,0-0.1c0-0.1,0-0.1,0.1-0.1
		c0.6,0,1.2,0,1.8,0c0.2,0,0.4,0.1,0.6,0.2c0.7,0.3,0.8,1.4,0.1,1.8c0,0-0.1,0-0.1,0.1c0.2,0.1,0.4,0.2,0.5,0.4
		c0.3,0.6,0.1,1.4-0.5,1.7c-0.2,0.1-0.3,0.2-0.5,0.1C49.8,48,49.7,48.1,49.7,48.1z M48.6,46.8c0,0.2,0,0.4,0,0.6
		c0,0.1,0,0.1,0.1,0.1c0.3,0,0.7,0,1,0c0.4-0.1,0.6-0.3,0.5-0.8c0-0.4-0.3-0.6-0.6-0.6c-0.3,0-0.6,0-0.9,0c-0.1,0-0.1,0-0.1,0.1
		C48.6,46.4,48.6,46.6,48.6,46.8z M48.6,44.9c0,0.2,0,0.3,0,0.5c0,0.1,0,0.1,0.1,0.1c0.3,0,0.6,0,0.9,0c0.3-0.1,0.5-0.3,0.5-0.6
		c0-0.3-0.2-0.5-0.5-0.6c-0.3,0-0.6,0-0.9,0c-0.1,0-0.1,0-0.1,0.1C48.6,44.6,48.6,44.7,48.6,44.9z"/>
	<path class="st3" d="M82.9,48.1c-0.3,0-0.5,0-0.8,0c0-0.1,0-0.2,0-0.2c0-1.3,0-2.6,0-3.9c0,0,0-0.1,0-0.1c0-0.1,0-0.1,0.1-0.1
		c0.6,0,1.2,0,1.8,0c0.2,0,0.4,0.1,0.6,0.2c0.4,0.2,0.6,0.5,0.7,1c0.1,0.6-0.1,1.1-0.7,1.4c0,0-0.1,0-0.1,0.1
		c0.3,0.6,0.6,1.1,0.9,1.7c0,0.1,0.1,0.1,0.1,0.2c-0.3,0-0.5,0-0.8,0c-0.3-0.5-0.5-1-0.8-1.5c-0.1-0.2-0.2-0.2-0.3-0.2
		c-0.1,0-0.3,0-0.4,0c-0.2,0-0.2,0-0.2,0.2c0,0.4,0,0.9,0,1.3C82.9,47.9,82.9,48,82.9,48.1z M82.9,45c0,0.2,0,0.4,0,0.6
		c0,0.1,0,0.1,0.1,0.1c0.3,0,0.6,0,0.9,0c0.4-0.1,0.6-0.4,0.6-0.8c0-0.4-0.3-0.6-0.7-0.6c-0.3,0-0.5,0-0.8,0c-0.1,0-0.1,0-0.1,0.2
		C82.9,44.6,82.9,44.8,82.9,45z"/>
	<path class="st3" d="M64.5,48.1c-0.3,0-0.5,0-0.8,0c0-0.2,0-0.5,0-0.7c0-1.2,0-2.3,0-3.5c0-0.2,0-0.2,0.2-0.2c0.2,0,0.3,0,0.5,0
		c0.1,0,0.2,0,0.1,0.2c0,0,0,0.1,0,0.1c0,0.5,0,0.9,0,1.4c0,0.2,0,0.2,0.2,0.2c0.5,0,1.1,0,1.6,0c0.2,0,0.2,0,0.2-0.2
		c0-0.5,0-0.9,0-1.4c0-0.1,0-0.1,0-0.2c0-0.1,0-0.1,0.1-0.1c0.2,0,0.4,0,0.6,0c0.1,0,0.1,0,0.1,0.1c0,0,0,0.1,0,0.1
		c0,1.4,0,2.7,0,4.1c0,0,0,0.1,0,0.1c-0.3,0-0.5,0-0.8,0c0-0.5,0-1.1,0-1.6c0-0.1,0-0.1,0-0.2c0-0.1,0-0.2-0.2-0.2
		c-0.1,0-0.2,0-0.3,0c-0.4,0-0.9,0-1.3,0c-0.2,0-0.2,0-0.2,0.2c0,0.5,0,1,0,1.6C64.5,48,64.6,48,64.5,48.1z"/>
	<path class="st3" d="M90.4,48.1c-1,0-1.9,0-2.9,0c0-0.6,0-1.3,0-1.9c0-0.8,0-1.5,0-2.3c0-0.2,0-0.2,0.2-0.2c0.8,0,1.7,0,2.5,0
		c0.2,0,0.2,0,0.2,0.2c0,0.1,0,0.2,0,0.3c0,0.2,0,0.2-0.2,0.2c-0.6,0-1.2,0-1.7,0c-0.2,0-0.2,0-0.2,0.2c0,0.3,0,0.6,0,0.9
		c0,0.2,0,0.2,0.2,0.2c0.5,0,0.9,0,1.4,0c0.1,0,0.1,0,0.2,0c0.1,0,0.1,0,0.1,0.1c0,0.2,0,0.3,0,0.5c0,0.1,0,0.1-0.1,0.1
		c-0.1,0-0.1,0-0.2,0c-0.5,0-0.9,0-1.4,0c-0.1,0-0.2,0-0.2,0.1c0,0.4,0,0.8,0,1.2c0.7,0,1.4,0,2.1,0C90.4,47.7,90.4,47.9,90.4,48.1z
		"/>
	<path class="st3" d="M80.2,48.1c-0.3,0-0.5,0-0.8,0c-0.1-0.3-0.2-0.6-0.3-0.8c-0.1-0.2-0.1-0.2-0.3-0.2c-0.4,0-0.9,0-1.3,0
		c-0.1,0-0.2,0-0.2,0.2c-0.1,0.3-0.2,0.6-0.3,0.9c-0.3,0-0.5,0-0.8,0c0-0.1,0-0.2,0.1-0.2c0.5-1.3,1-2.7,1.5-4
		c0.1-0.2,0.1-0.2,0.3-0.2c0.1,0,0.2,0,0.3,0c0.1,0,0.2,0,0.2,0.1c0.1,0.2,0.2,0.5,0.3,0.7c0.4,1.1,0.8,2.2,1.2,3.3
		C80.1,47.9,80.1,48,80.2,48.1z M78.8,46.4c-0.2-0.6-0.4-1.2-0.6-1.7c0,0,0,0,0,0c-0.2,0.6-0.4,1.1-0.6,1.7
		C77.9,46.4,78.3,46.4,78.8,46.4z"/>
	<path class="st3" d="M56.8,48.1c-0.3,0-0.5,0-0.8,0c-0.1-0.3-0.2-0.6-0.3-0.8c-0.1-0.2-0.1-0.2-0.3-0.2c-0.4,0-0.9,0-1.3,0
		c-0.1,0-0.2,0-0.2,0.2c-0.1,0.3-0.2,0.6-0.3,0.9c-0.3,0-0.5,0-0.8,0c0-0.1,0-0.2,0.1-0.2c0.5-1.3,1-2.7,1.5-4
		c0.1-0.3,0.1-0.2,0.3-0.2c0.1,0,0.3-0.1,0.4,0c0.1,0.1,0.1,0.3,0.2,0.4c0.5,1.3,1,2.5,1.4,3.8C56.8,48,56.9,48,56.8,48.1z
		 M55.4,46.4c-0.2-0.6-0.4-1.2-0.6-1.7c-0.1,0.2-0.6,1.6-0.6,1.7C54.6,46.4,55,46.4,55.4,46.4z"/>
	<path class="st3" d="M74.2,10.2C74.2,10.2,74.2,10.2,74.2,10.2c-0.5,0.6-1.6,0.7-2.2-0.1c-0.3-0.4-0.4-0.9-0.3-1.4
		c0.1-0.4,0.2-0.7,0.5-1c0.4-0.4,0.9-0.5,1.4-0.4c0.3,0.1,0.4,0.2,0.6,0.4c0-0.1,0-0.2,0-0.3c0-0.1,0-0.1,0.1-0.1
		c0.4,0,0.4,0,0.4,0.4c0,0.7,0,1.3,0,2c0,0.4,0,0.7,0,1.1c-0.1,0.7-0.5,1.1-1.3,1.2c-0.4,0.1-0.9,0-1.3-0.2
		c-0.2-0.1-0.2-0.1-0.1-0.3c0-0.1,0-0.2,0.1-0.3c0.2,0.1,0.5,0.2,0.7,0.2c0.2,0,0.4,0,0.6,0c0.4-0.1,0.6-0.4,0.6-0.8
		C74.3,10.6,74.3,10.4,74.2,10.2z M74.2,8.9c0-0.2,0-0.4,0-0.6c-0.1-0.3-0.3-0.6-0.7-0.6c-0.4,0-0.7,0.1-0.9,0.4
		c-0.3,0.5-0.3,1,0,1.6c0.2,0.4,0.6,0.5,1,0.4c0.4-0.1,0.6-0.4,0.7-0.8C74.2,9.2,74.2,9.1,74.2,8.9z"/>
	<path class="st3" d="M40.1,8.4c0.4,0.2,0.6,0.5,0.7,0.9c0.1,0.4,0.2,0.9,0.4,1.3c-0.2,0-0.4,0-0.5,0c-0.1,0-0.1-0.1-0.2-0.1
		c-0.1-0.3-0.2-0.5-0.2-0.8c0-0.2-0.1-0.4-0.2-0.5c-0.1-0.3-0.3-0.4-0.6-0.5c-0.2,0-0.4,0-0.6,0c-0.1,0-0.1,0-0.1,0.2
		c0,0.5,0,1.1,0,1.6c0,0.3,0,0.3-0.3,0.3c-0.3,0-0.3,0-0.3-0.4c0-1.3,0-2.7,0-4c0-0.2,0-0.2,0.2-0.3C38.7,6,39.1,6,39.5,6
		c0.2,0,0.5,0,0.7,0.1c0.5,0.2,0.7,0.5,0.8,1c0,0.5-0.1,0.9-0.5,1.1C40.4,8.3,40.3,8.4,40.1,8.4z M38.7,7.3c0,0.2,0,0.5,0,0.7
		c0,0.1,0,0.1,0.1,0.1c0.2,0,0.5,0,0.7,0c0.1,0,0.3-0.1,0.4-0.1c0.3-0.2,0.4-0.5,0.4-0.8c0-0.3-0.2-0.6-0.5-0.7
		c-0.3-0.1-0.6-0.1-1-0.1c-0.1,0-0.1,0-0.1,0.2C38.7,6.9,38.7,7.1,38.7,7.3z"/>
	<path class="st3" d="M48.1,7.3c0.2,0,0.4-0.1,0.6,0c0.2,0.1,0.1,0.3,0.2,0.5c0.2,0.7,0.4,1.4,0.5,2.1c0,0,0,0,0,0
		c0.1,0,0.1-0.1,0.1-0.2C49.7,9,50,8.3,50.2,7.5c0.1-0.2,0.1-0.2,0.2-0.2c0.4,0,0.3-0.1,0.4,0.3c0.2,0.8,0.5,1.5,0.7,2.3
		c0.1,0,0.1-0.1,0.1-0.1c0.2-0.8,0.4-1.6,0.7-2.4c0-0.1,0.1-0.1,0.2-0.1c0.1,0,0.3,0,0.4,0c0.1,0.1,0,0.1,0,0.2c-0.3,1-0.6,2-1,3
		c-0.1,0.2-0.1,0.2-0.2,0.2c-0.4,0-0.4,0-0.5-0.4c-0.2-0.7-0.5-1.4-0.7-2.1c0,0,0,0-0.1-0.1c0,0.1,0,0.1-0.1,0.2
		C50.3,9,50,9.8,49.7,10.5c0,0.1-0.1,0.1-0.2,0.1c-0.1,0-0.3,0-0.4,0c-0.1-0.1-0.1-0.2-0.1-0.4c-0.3-0.9-0.5-1.8-0.8-2.7
		C48.2,7.5,48.2,7.4,48.1,7.3z"/>
	<path class="st3" d="M60.3,48.1c-0.3,0-0.5,0-0.8,0c0-1.2,0-2.3,0-3.5c0-0.3,0-0.3-0.3-0.3c-0.3,0-0.6,0-0.9,0
		c-0.2,0-0.2,0-0.2-0.2c0-0.1-0.1-0.3,0-0.4c0.1-0.1,0.3,0,0.4,0c0.9,0,1.9,0,2.8,0c0,0,0.1,0,0.1,0c0.1,0,0.1,0,0.1,0.1
		c0,0.1,0,0.3,0,0.4c0,0.1,0,0.1-0.1,0.1c-0.3,0-0.7,0-1,0c-0.2,0-0.2,0-0.2,0.2c0,1.1,0,2.2,0,3.3C60.3,47.9,60.3,48,60.3,48.1z"/>
	<path class="st3" d="M67.2,7.8c0.1,0,0.1-0.1,0.1-0.1c0.3-0.4,0.8-0.5,1.2-0.4c0.5,0.1,0.8,0.5,0.9,1c0,0.2,0,0.4,0,0.6
		c0,0.5,0,1.1,0,1.6c0,0.2,0,0.2-0.2,0.2c-0.1,0-0.2,0-0.3,0c-0.1,0-0.1,0-0.1-0.1c0-0.1,0-0.3,0-0.4c0-0.4,0-0.9,0-1.3
		c0-0.2,0-0.3-0.1-0.5c-0.1-0.5-0.5-0.6-1-0.5c-0.3,0.1-0.5,0.4-0.6,0.8c0,0.6,0,1.2,0,1.7c0,0.3,0,0.3-0.3,0.3
		c-0.3,0-0.3,0-0.3-0.3c0-0.9,0-1.9,0-2.8c0-0.2,0-0.2,0.2-0.2c0.1,0,0.3-0.1,0.4,0C67.2,7.4,67.1,7.6,67.2,7.8
		C67.1,7.7,67.1,7.7,67.2,7.8z"/>
	<path class="st3" d="M93.9,9.1c0,0.7,0.4,1.1,1.1,1.1c0.3,0,0.6-0.1,0.9-0.2c0,0,0,0,0,0c0.1,0.5,0.2,0.4-0.3,0.5
		c-0.4,0.1-0.7,0.1-1.1,0.1c-0.7-0.1-1.1-0.5-1.2-1.2c-0.1-0.5-0.1-1,0.2-1.5c0.3-0.7,1-1,1.8-0.8C95.6,7.4,95.9,7.6,96,8
		c0.1,0.3,0.2,0.6,0.2,1c0,0.2,0,0.2-0.2,0.2c-0.6,0-1.3,0-1.9,0C94,9.1,93.9,9.1,93.9,9.1z M94.7,8.7c0.3,0,0.5,0,0.8,0
		c0.1,0,0.1,0,0.1-0.1c0-0.5-0.3-0.9-0.8-0.9c-0.4,0-0.8,0.3-0.9,0.8c0,0.1,0,0.1,0.1,0.1C94.2,8.7,94.5,8.7,94.7,8.7z"/>
	<path class="st3" d="M43.8,9.1c0,0.6,0.4,1.1,1,1.1c0.3,0,0.6,0,0.9-0.1c0.1,0,0.1,0,0.2,0.1c0.1,0.3,0.1,0.3-0.2,0.4
		c-0.4,0.1-0.8,0.1-1.2,0.1c-0.6-0.1-1-0.5-1.2-1.1c-0.1-0.5-0.1-1,0.1-1.4c0.3-0.8,1.1-1,1.8-0.8c0.3,0.1,0.5,0.3,0.7,0.5
		c0.2,0.3,0.3,0.7,0.3,1.1c0,0.2,0,0.2-0.2,0.2c-0.6,0-1.3,0-1.9,0C44,9.1,43.9,9.1,43.8,9.1z M45.5,8.6c0-0.2,0-0.3-0.1-0.5
		c-0.1-0.4-0.5-0.6-0.9-0.5c-0.4,0.1-0.7,0.5-0.7,0.9C44.4,8.6,45,8.6,45.5,8.6z"/>
	<path class="st3" d="M61.1,7.3c0,0.1,0,0.2-0.1,0.3c-0.4,1-0.8,1.9-1.1,2.9c-0.1,0.2-0.1,0.2-0.3,0.2c-0.4,0-0.4,0-0.5-0.3
		c-0.4-0.9-0.7-1.9-1.1-2.8c0-0.1,0-0.1-0.1-0.2c0.2,0,0.4,0,0.6,0c0.1,0,0.1,0.1,0.1,0.1c0.1,0.4,0.3,0.8,0.4,1.2
		c0.2,0.4,0.3,0.9,0.4,1.3c0.2-0.6,0.4-1.2,0.6-1.7c0.1-0.3,0.2-0.5,0.3-0.8c0-0.1,0.1-0.2,0.2-0.2C60.8,7.3,61,7.3,61.1,7.3z"/>
	<path class="st3" d="M88.3,7.3c0.2,0,0.3,0,0.5,0c0.1,0,0.1,0,0.2,0.1c0.1,0.3,0.2,0.7,0.4,1c0.2,0.5,0.4,1,0.5,1.5
		c0,0,0,0.1,0.1,0.1c0.3-0.8,0.6-1.6,0.8-2.4c0,0,0-0.1,0-0.1c0-0.1,0.1-0.1,0.2-0.1c0.2,0,0.3,0,0.5,0c0,0.1,0,0.2,0,0.2
		c-0.4,1-0.8,2-1.1,2.9c-0.1,0.2-0.1,0.2-0.3,0.2c-0.4,0-0.4,0-0.5-0.4c-0.4-0.9-0.7-1.9-1.1-2.8C88.3,7.5,88.2,7.4,88.3,7.3z"/>
	<path class="st3" d="M81.2,6c0,0.1,0,0.2,0,0.3c0,1.2,0,2.4,0,3.6c0,0.1,0,0.1,0,0.2c0,0.1,0,0.1,0.1,0.1c0.3,0,0.5,0,0.8,0
		c0.3,0,0.6,0,0.9,0c0.1,0,0.1,0,0.1,0.1c0,0.4,0,0.4-0.4,0.4c-0.7,0-1.4,0-2.1,0c-0.2,0-0.2,0-0.2-0.2c0-1.4,0-2.9,0-4.3
		c0-0.1,0-0.2,0.2-0.2C80.9,6,81,6,81.2,6z"/>
	<path class="st3" d="M99.3,10.7c-0.3,0-0.5,0-0.8-0.2c-0.1,0-0.1-0.1-0.1-0.2c0-0.1,0.1-0.2,0.1-0.3c0.1-0.1,0.2,0.1,0.3,0.1
		c0.2,0.1,0.5,0.1,0.7,0.1c0.2,0,0.4-0.2,0.4-0.4c0-0.2,0-0.4-0.2-0.5c-0.1-0.1-0.3-0.1-0.4-0.2c-0.2-0.1-0.4-0.2-0.5-0.3
		c-0.5-0.4-0.4-1.1,0-1.4c0.1-0.1,0.3-0.2,0.5-0.2c0.3-0.1,0.7,0,1,0.1c0.2,0.1,0.2,0.1,0.1,0.2c0,0,0,0,0,0c0,0.1,0,0.2-0.1,0.2
		c-0.1,0-0.1-0.1-0.2-0.1c-0.2-0.1-0.4-0.1-0.6-0.1c-0.2,0-0.3,0.2-0.4,0.3c0,0.2,0,0.3,0.2,0.5c0.1,0.1,0.3,0.1,0.4,0.2
		c0.2,0.1,0.3,0.1,0.5,0.3c0.6,0.4,0.5,1.3-0.1,1.6C99.8,10.7,99.5,10.7,99.3,10.7z"/>
	<path class="st3" d="M42.1,45.8c1,0,2,0,2.9,0c0.1,0,0.1,0,0.2,0c0.1,0,0.1,0.1,0.1,0.2c0,0.1,0,0.1-0.1,0.2c-0.1,0-0.1,0-0.2,0
		c-2,0-4,0-6,0c-0.1,0-0.1,0-0.2,0c-0.1,0-0.1-0.1-0.1-0.2c0-0.1,0.1-0.1,0.1-0.1c0.1,0,0.1,0,0.2,0C40.2,45.8,41.2,45.8,42.1,45.8z
		"/>
	<path class="st3" d="M97.3,45.8c1,0,2,0,2.9,0c0.1,0,0.1,0,0.2,0c0.1,0,0.1,0.1,0.2,0.1c0,0.1,0,0.1-0.1,0.2c-0.1,0-0.1,0-0.2,0
		c-2,0-4,0-6,0c-0.1,0-0.1,0-0.2,0C94,46.1,94,46.1,94,46c0-0.1,0.1-0.1,0.2-0.1c0.1,0,0.1,0,0.2,0C95.3,45.8,96.3,45.8,97.3,45.8z"
		/>
	<path class="st3" d="M127.6,12.1c1.2,0,2.1,1,2.1,2.2c0,1-0.8,2.1-2.1,2.1c-1.3,0-2.2-1-2.1-2.2C125.5,13.1,126.4,12.1,127.6,12.1z
		 M127.6,16.2c1,0,2-0.8,2-2c0-1.1-0.9-2-2-2c-1,0-2,0.8-2,2C125.6,15.5,126.6,16.3,127.6,16.2z"/>
	<path class="st3" d="M63.4,7.3c0.2,0,0.3,0,0.5,0c0.1,0,0.1,0,0.1,0.1c0,0.1,0,0.2,0,0.2c0,0.9,0,1.8,0,2.7c0,0.1,0,0.1,0,0.2
		c0,0.1,0,0.1-0.1,0.1c-0.1,0-0.3,0-0.4,0c-0.1,0-0.1,0-0.1-0.1c0,0,0-0.1,0-0.1c0-1,0-1.9,0-2.9C63.3,7.5,63.3,7.4,63.4,7.3z"/>
	<path class="st3" d="M86,9c0,0.5,0,1,0,1.5c0,0.2,0,0.2-0.2,0.2c-0.1,0-0.2,0-0.3,0c-0.1,0-0.2-0.1-0.2-0.2c0-1,0-2,0-3
		c0-0.2,0-0.2,0.2-0.2c0.1,0,0.3-0.1,0.4,0c0.1,0.1,0,0.3,0,0.4C86,8.2,86,8.6,86,9z"/>
	<path class="st3" d="M55.2,9c0-0.5,0-1,0-1.5c0-0.2,0-0.2,0.2-0.2c0.1,0,0.3-0.1,0.4,0c0.1,0.1,0,0.3,0,0.4c0,0.9,0,1.8,0,2.7
		c0,0.2,0,0.2-0.2,0.2c-0.1,0-0.2,0-0.2,0c-0.2,0-0.2,0-0.2-0.2C55.2,10,55.2,9.5,55.2,9z"/>
	<path class="st3" d="M55.9,6.4c0,0.2-0.2,0.4-0.4,0.4c-0.2,0-0.4-0.2-0.4-0.4c0-0.2,0.2-0.4,0.4-0.4C55.7,6,55.9,6.2,55.9,6.4z"/>
	<path class="st3" d="M86.1,6.4c0,0.2-0.2,0.4-0.4,0.4c-0.2,0-0.4-0.2-0.4-0.4c0-0.2,0.2-0.4,0.4-0.4C85.9,6,86.1,6.2,86.1,6.4z"/>
	<path class="st3" d="M64,6.4c0,0.2-0.2,0.4-0.4,0.4c-0.2,0-0.4-0.2-0.4-0.4c0-0.2,0.2-0.4,0.4-0.4C63.9,6,64,6.2,64,6.4z"/>
	<path class="st3" d="M127.9,14.3c0.2,0.1,0.3,0.3,0.4,0.6c0.1,0.2,0.1,0.4,0.2,0.7c-0.1,0-0.1,0-0.2,0c-0.1,0-0.1,0-0.2-0.1
		c0-0.2-0.1-0.3-0.1-0.5c0-0.1-0.1-0.2-0.1-0.3c-0.1-0.2-0.3-0.3-0.5-0.3c-0.3,0-0.3,0-0.3,0.3c0,0.2,0,0.5,0,0.7
		c0,0.1,0,0.1-0.2,0.1c-0.1,0-0.2,0-0.2-0.1c0-0.8,0-1.5,0-2.3c0-0.1,0-0.1,0.1-0.1c0.3,0,0.6-0.1,1,0c0.3,0.1,0.5,0.2,0.5,0.5
		c0.1,0.3-0.1,0.6-0.3,0.7C128,14.3,128,14.3,127.9,14.3z M127.1,13.7c0,0.1,0,0.3,0,0.4c0,0.1,0,0.1,0.1,0.1c0.2,0,0.4,0,0.5,0
		c0.2-0.1,0.3-0.3,0.3-0.5c0-0.2-0.2-0.4-0.4-0.4c-0.1,0-0.2,0-0.3,0c-0.2,0-0.2,0-0.2,0.2C127.1,13.5,127.1,13.6,127.1,13.7z"/>
</g>
</svg>
